<svg xmlns="http://www.w3.org/2000/svg" width="20" height="20" viewBox="0 0 18 18" fill="#000">
  <path d="M8.03 0.341026C8.30108 0.120837 8.64478 0 9 0C9.35522 0 9.69892 0.120837 9.97 0.341026L17.47 6.44445C17.6361 6.5795 17.7695 6.74762 17.861 6.93711C17.9526 7.1266 18 7.33294 18 7.54178V16.5612C18 16.9428 17.842 17.3088 17.5607 17.5786C17.2794 17.8484 16.8978 18 16.5 18H10.75C10.5511 18 10.3603 17.9242 10.2197 17.7893C10.079 17.6544 10 17.4714 10 17.2806V11.2856H8V17.2806C8 17.4714 7.92098 17.6544 7.78033 17.7893C7.63968 17.9242 7.44891 18 7.25 18H1.5C1.10218 18 0.720644 17.8484 0.43934 17.5786C0.158035 17.3088 0 16.9428 0 16.5612V7.54178C0 7.11973 0.194 6.71782 0.53 6.44445L8.03 0.341026ZM9 1.43836L1.5 7.54178V16.5612H6.5V10.5662C6.5 10.3754 6.57902 10.1924 6.71967 10.0575C6.86032 9.92255 7.05109 9.84675 7.25 9.84675H10.75C10.9489 9.84675 11.1397 9.92255 11.2803 10.0575C11.421 10.1924 11.5 10.3754 11.5 10.5662V16.5612H16.5V7.54178L9 1.43836Z" fill="#000"/>
</svg>