<svg xmlns="http://www.w3.org/2000/svg" width="20" height="20" viewBox="0 0 21 20" fill="#000">
  <path fill-rule="evenodd" clip-rule="evenodd" d="M6.17299 0.833333L6.85087 0H9.56236L10.2402 0.833333V19.1667L9.56236 20H6.85087L6.17299 19.1667V0.833333ZM7.52874 1.66667V18.3333H8.88449V1.66667H7.52874ZM11.8278 2.24167L12.2332 1.17333L14.782 0.0333333L15.6497 0.531667L20.75 17.7583L20.3446 18.8267L17.7972 19.9667L16.9295 19.4683L11.8278 2.24167ZM13.3327 2.455L17.9694 18.115L19.2438 17.5467L14.6071 1.885L13.3327 2.455ZM0.75 0.833333L1.42787 0H4.13937L4.81725 0.833333V19.1667L4.13937 20H1.42787L0.75 19.1667V0.833333ZM2.10575 1.66667V18.3333H3.4615V1.66667H2.10575Z" fill="#000"/>
</svg>