<svg xmlns="http://www.w3.org/2000/svg" width="21" height="20" viewBox="0 0 21 20" fill="none">
  <path d="M9.48077 0C8.21575 0 7.17308 1.04267 7.17308 2.30769L7.1851 2.18149L6.42788 6.72776L4.97356 10.7061C4.94651 10.7422 4.91346 10.7692 4.86538 10.7692H4.09615V10H0.25V20H4.09615V17.6923H7.11599C8.38101 17.6923 9.51983 17.0793 10.25 16.1268C10.9802 17.0793 12.119 17.6923 13.384 17.6923H16.4038V20H20.25V10H16.4038V10.7692H15.6346C15.5865 10.7692 15.5535 10.7422 15.5264 10.7061L14.0721 6.72776L13.3149 2.18149L13.3269 2.30769C13.3269 1.04267 12.2843 0 11.0192 0C10.7578 0 10.4904 0.0510815 10.25 0.174279C10.0096 0.0510815 9.74219 0 9.48077 0ZM9.45373 1.55048C9.46875 1.66166 9.48077 1.91406 9.48077 2.30769V14.1827C9.26743 15.3245 8.28486 16.1538 7.11599 16.1538H4.09615V12.3077H4.86538C5.46935 12.3077 6.03125 11.9802 6.32873 11.4543L6.35877 11.3972L7.91827 7.11839L8.71154 2.37079V2.30769C8.71154 1.88401 9.03606 1.5655 9.45373 1.55048ZM11.0463 1.55048C11.4639 1.5655 11.7885 1.88401 11.7885 2.30769V2.37079L12.5817 7.11839L14.1412 11.3972L14.1713 11.4543C14.4688 11.9802 15.0306 12.3077 15.6346 12.3077H16.4038V16.1538H13.384C12.2151 16.1538 11.2326 15.3245 11.0192 14.1827V2.30769C11.0192 1.91406 11.0312 1.66166 11.0463 1.55048ZM1.78846 11.5385H2.55769V18.4615H1.78846V11.5385ZM17.9423 11.5385H18.7115V18.4615H17.9423V11.5385Z" fill="#141829"/>
</svg>