<svg xmlns="http://www.w3.org/2000/svg" width="21" height="22" viewBox="0 0 21 22" fill="none">
  <path d="M17.7026 21H3.29736C2.55545 21 1.84393 20.7053 1.31933 20.1807C0.794721 19.6561 0.5 18.9445 0.5 18.2026V3.79736C0.5 3.05545 0.794721 2.34393 1.31933 1.81933C1.84393 1.29472 2.55545 1 3.29736 1H17.7026C18.4445 1 19.1561 1.29472 19.6807 1.81933C20.2053 2.34393 20.5 3.05545 20.5 3.79736V18.2026C20.5 18.9445 20.2053 19.6561 19.6807 20.1807C19.1561 20.7053 18.4445 21 17.7026 21ZM3.29736 2.11894C2.85222 2.11894 2.4253 2.29578 2.11054 2.61054C1.79578 2.9253 1.61894 3.35222 1.61894 3.79736V18.2026C1.61894 18.6478 1.79578 19.0747 2.11054 19.3895C2.4253 19.7042 2.85222 19.8811 3.29736 19.8811H17.7026C18.1478 19.8811 18.5747 19.7042 18.8895 19.3895C19.2042 19.0747 19.3811 18.6478 19.3811 18.2026V3.79736C19.3811 3.35222 19.2042 2.9253 18.8895 2.61054C18.5747 2.29578 18.1478 2.11894 17.7026 2.11894H3.29736Z" fill="#434654" stroke="#434654" stroke-width="0.4"/>
  <path d="M4.39617 6.84084C4.24837 6.83828 4.10711 6.77945 4.00118 6.67635C3.89629 6.57144 3.83737 6.42916 3.83737 6.28081C3.83737 6.13245 3.89629 5.99018 4.00118 5.88526C4.10683 5.78189 4.24836 5.72335 4.39617 5.72189H5.52182C5.66954 5.72381 5.81089 5.78228 5.91681 5.88526C5.96893 5.93722 6.01029 5.99895 6.03852 6.06692C6.06674 6.13489 6.08128 6.20777 6.08129 6.28137C6.08129 6.42975 6.02235 6.57205 5.91743 6.67697C5.81251 6.78189 5.6702 6.84084 5.52182 6.84084H4.39617Z" fill="#434654" stroke="#434654" stroke-width="0.4"/>
  <path d="M4.39616 11.5595C4.24861 11.5568 4.10753 11.4984 4.00117 11.3961C3.94907 11.3441 3.90773 11.2824 3.87953 11.2144C3.85133 11.1464 3.83681 11.0736 3.83681 11C3.83681 10.9264 3.85133 10.8535 3.87953 10.7856C3.90773 10.7176 3.94907 10.6559 4.00117 10.6039C4.10709 10.5009 4.24845 10.4424 4.39616 10.4405H5.52182C5.66942 10.443 5.81057 10.5014 5.9168 10.6039C5.96891 10.6559 6.01024 10.7176 6.03845 10.7856C6.06665 10.8535 6.08117 10.9264 6.08117 11C6.08117 11.0736 6.06665 11.1464 6.03845 11.2144C6.01024 11.2824 5.96891 11.3441 5.9168 11.3961C5.81089 11.4991 5.66953 11.5575 5.52182 11.5595H4.39616Z" fill="#434654" stroke="#434654" stroke-width="0.4"/>
  <path d="M4.39617 16.2814C4.24837 16.2789 4.10711 16.22 4.00118 16.1169C3.89629 16.012 3.83737 15.8697 3.83737 15.7214C3.83737 15.573 3.89629 15.4308 4.00118 15.3258C4.10709 15.2229 4.24845 15.1644 4.39617 15.1625H5.52182C5.66954 15.1644 5.81089 15.2229 5.91681 15.3258C5.96893 15.3778 6.01029 15.4395 6.03852 15.5075C6.06674 15.5755 6.08128 15.6483 6.08129 15.7219C6.08129 15.8703 6.02235 16.0126 5.91743 16.1176C5.81251 16.2225 5.6702 16.2814 5.52182 16.2814H4.39617Z" fill="#434654" stroke="#434654" stroke-width="0.4"/>
  <path d="M8.88313 6.83867C8.73474 6.83867 8.59244 6.77973 8.48752 6.6748C8.3826 6.56988 8.32365 6.42758 8.32365 6.2792C8.32365 6.13082 8.3826 5.98851 8.48752 5.88359C8.59244 5.77867 8.73474 5.71973 8.88313 5.71973H16.6038C16.7522 5.71973 16.8945 5.77867 16.9994 5.88359C17.1044 5.98851 17.1633 6.13082 17.1633 6.2792C17.1633 6.42758 17.1044 6.56988 16.9994 6.6748C16.8945 6.77973 16.7522 6.83867 16.6038 6.83867H8.88313Z" fill="#434654" stroke="#434654" stroke-width="0.4"/>
  <path d="M8.88313 11.5595C8.73474 11.5595 8.59244 11.5005 8.48752 11.3956C8.3826 11.2907 8.32365 11.1484 8.32365 11C8.32365 10.8516 8.3826 10.7093 8.48752 10.6044C8.59244 10.4995 8.73474 10.4405 8.88313 10.4405H16.6038C16.7522 10.4405 16.8945 10.4995 16.9994 10.6044C17.1044 10.7093 17.1633 10.8516 17.1633 11C17.1633 11.1484 17.1044 11.2907 16.9994 11.3956C16.8945 11.5005 16.7522 11.5595 16.6038 11.5595H8.88313Z" fill="#434654" stroke="#434654" stroke-width="0.4"/>
  <path d="M8.88313 16.2792C8.73474 16.2792 8.59244 16.2202 8.48752 16.1153C8.3826 16.0104 8.32365 15.8681 8.32365 15.7197C8.32365 15.5713 8.3826 15.429 8.48752 15.3241C8.59244 15.2192 8.73474 15.1602 8.88313 15.1602H16.6038C16.7522 15.1602 16.8945 15.2192 16.9994 15.3241C17.1044 15.429 17.1633 15.5713 17.1633 15.7197C17.1633 15.8681 17.1044 16.0104 16.9994 16.1153C16.8945 16.2202 16.7522 16.2792 16.6038 16.2792H8.88313Z" fill="#434654" stroke="#434654" stroke-width="0.4"/>
</svg>