<svg xmlns="http://www.w3.org/2000/svg" width="24" height="24" viewBox="0 0 26 26" fill="none">
  <path d="M12.5845 1C11.3729 1.15158 10.288 2.55383 10.288 4.39613C10.288 5.40548 10.6327 6.29266 11.1397 6.91116L11.7582 7.64625L10.8102 7.82368C10.1511 7.95042 9.66446 8.3053 9.25382 8.87816C8.8229 9.46117 8.50352 10.2419 8.28552 11.1696C7.87996 12.8274 7.78363 14.8552 7.78363 16.6549H9.99398L10.5871 24.7916C12.1283 25.1465 13.786 25.1212 15.2664 24.7916L15.8088 16.6549H17.9127C17.9127 14.8451 17.8874 12.7818 17.5173 11.0936C17.3196 10.1861 17.0103 9.38512 16.5946 8.80719C16.1789 8.24446 15.6567 7.9048 14.9064 7.7882L13.9483 7.63611L14.5516 6.88074C15.0534 6.26732 15.383 5.38014 15.383 4.39613C15.383 2.4423 14.1663 1 12.833 1H12.5845ZM19.9355 1.182V3.30363H17.8164V5.84654H19.9355V7.95549H22.4652V5.84654H24.5894V3.30363H22.4652V1.182H19.9355ZM2.54775 3.23012V4.7804H1V6.6374H2.54775V8.17856H4.39308V6.6374H5.94337V4.7804H4.39308V3.23012H2.54775ZM4.56089 10.1658V11.271H3.45166V12.6043H4.56089V13.7146H5.89267V12.6043H6.99785V11.271H5.89267V10.1658H4.56089ZM22.5615 13.3293V14.4344H21.4513V15.7677H22.5615V16.878H23.8948V15.7677H25V14.4344H23.8948V13.3293H22.5615ZM6.9725 18.3685V19.1289H6.21206V20.0414H6.9725V20.8019H7.8901V20.0414H8.65054V19.1289H7.8901V18.3685H6.9725ZM18.6326 20.6903V21.4508H17.8721V22.3633H18.6326V23.1237H19.5451V22.3633H20.3055V21.4508H19.5451V20.6903H18.6326ZM2.36524 21.9324V22.6928H1.6048V23.6054H2.36524V24.3658H3.27828V23.6054H4.03872V22.6928H3.27828V21.9324H2.36524Z" fill="white" stroke="black" stroke-width="1.2"/>
</svg>